<?xml version="1.0" encoding="UTF-8" standalone="no"?>
<svg
   xmlns:dc="http://purl.org/dc/elements/1.1/"
   xmlns:cc="http://creativecommons.org/ns#"
   xmlns:rdf="http://www.w3.org/1999/02/22-rdf-syntax-ns#"
   xmlns:svg="http://www.w3.org/2000/svg"
   xmlns="http://www.w3.org/2000/svg"
   xmlns:sodipodi="http://sodipodi.sourceforge.net/DTD/sodipodi-0.dtd"
   xmlns:inkscape="http://www.inkscape.org/namespaces/inkscape"
   version="1.1"
   id="Layer_1"
   x="0px"
   y="0px"
   viewBox="0 0 599.94341 365.6638"
   xml:space="preserve"
   sodipodi:docname="logo.svg"
   width="599.94342"
   height="365.66379"
   inkscape:version="1.0.1 (3bc2e813f5, 2020-09-07)"
   inkscape:export-filename="C:\Users\silve\Downloads\logo.png"
   inkscape:export-xdpi="192"
   inkscape:export-ydpi="192"><metadata
   id="metadata102"><rdf:RDF><cc:Work
       rdf:about=""><dc:format>image/svg+xml</dc:format><dc:type
         rdf:resource="http://purl.org/dc/dcmitype/StillImage" /><dc:title></dc:title></cc:Work></rdf:RDF></metadata><defs
   id="defs100"><rect
   x="-77.273987"
   y="-26.079971"
   width="879.95758"
   height="873.19611"
   id="rect851" />
	
	
	
	
</defs><sodipodi:namedview
   pagecolor="#ffffff"
   bordercolor="#666666"
   borderopacity="1"
   objecttolerance="10"
   gridtolerance="10"
   guidetolerance="10"
   inkscape:pageopacity="0"
   inkscape:pageshadow="2"
   inkscape:window-width="1920"
   inkscape:window-height="1001"
   id="namedview98"
   showgrid="true"
   fit-margin-top="0"
   fit-margin-left="0"
   fit-margin-right="0"
   fit-margin-bottom="0"
   inkscape:zoom="3.0052802"
   inkscape:cx="316.55508"
   inkscape:cy="-133.09842"
   inkscape:window-x="-9"
   inkscape:window-y="-9"
   inkscape:window-maximized="1"
   inkscape:current-layer="Layer_1"
   inkscape:document-rotation="0"><inkscape:grid
     type="xygrid"
     id="grid1653" /></sodipodi:namedview>
<style
   type="text/css"
   id="style57">
	.st0{fill:#403F3E;}
</style>
<path
   class="st0"
   d="M 55.583238,74.94795 V 19.426991 c 0,-0.97873 -0.26693,-1.77951 -0.71181,-2.22439 -0.44488,-0.53386 -1.24566,-0.88976 -2.402348,-1.24567 v -1.51259 h 36.658068 c 8.00783,0 14.147162,0.88976 18.506982,2.75826 6.13934,2.66927 10.67711,7.02909 13.70229,13.168429 2.31337,4.8047 3.47006,10.41018 3.47006,16.90542 0,11.29994 -3.47006,19.9306 -10.41018,25.89198 -2.9362,2.49133 -6.31729,4.27084 -10.23223,5.33855 -3.91494,1.06771 -8.897592,1.60157 -14.947952,1.60157 H 52.46908 v -1.51259 c 1.156688,-0.3559 1.957468,-0.71181 2.402348,-1.24566 0.44488,-0.62283 0.71181,-1.42362 0.71181,-2.40235 z m 14.32512,-5.78343 h 17.97312 c 5.78344,0 10.05428,-0.80079 12.901512,-2.31338 6.22831,-3.38108 9.25349,-9.87632 9.25349,-19.66367 0,-7.02909 -1.69054,-12.45662 -4.98265,-16.19361 -1.86849,-2.046449 -4.09289,-3.559039 -6.762172,-4.448789 -2.66927,-0.88976 -6.13933,-1.33464 -10.49915,-1.33464 h -17.88415 z"
   id="path59"
   style="fill:#000000;stroke-width:0.889759" /><path
   class="st0"
   d="m 110.92624,161.67488 c 7.38499,2.75825 11.03301,7.91886 11.03301,15.48181 0,5.96138 -2.13543,10.6771 -6.40627,14.05819 -2.2244,1.69054 -4.71572,2.9362 -7.56295,3.64801 -2.84723,0.7118 -6.40626,1.15668 -10.677112,1.15668 H 52.469079 v -1.51259 c 1.156679,-0.3559 1.957469,-0.7118 2.402349,-1.24566 0.44488,-0.53385 0.7118,-1.24566 0.7118,-2.2244 v -55.60993 c 0,-0.97873 -0.26692,-1.77951 -0.7118,-2.22439 -0.44488,-0.53386 -1.24567,-0.88976 -2.402349,-1.24567 v -1.51259 h 44.398969 c 4.270842,0 7.651922,0.35591 10.321202,0.97874 2.5803,0.62283 4.89367,1.69054 6.85114,3.29211 3.91494,3.02518 5.78343,7.47397 5.78343,13.16843 0,6.31729 -2.9362,10.94403 -8.89758,13.79126 z m -41.017892,-5.1606 h 25.18018 c 3.82596,0 6.495242,-0.53386 8.007832,-1.69054 1.69054,-1.24566 2.5803,-3.29211 2.5803,-5.96139 0,-2.75825 -0.80079,-4.71572 -2.40235,-5.87241 -1.60157,-1.15668 -4.270842,-1.77951 -8.096812,-1.77951 h -25.26915 z m 0,28.65024 h 24.29042 c 4.53777,0 7.740902,-0.62284 9.787352,-1.8685 2.31337,-1.42361 3.38108,-3.82596 3.38108,-7.02909 0,-3.20313 -1.15669,-5.60548 -3.38108,-7.0291 -1.95747,-1.24566 -5.249582,-1.86849 -9.787352,-1.86849 h -24.29042 z"
   id="path61"
   style="fill:#000000;stroke-width:0.889759" /><g
   id="g77"
   style="fill:#000000"
   transform="matrix(0.88975888,0,0,0.88975888,36.631372,-4.062639)">
		<path
   class="st0"
   d="m 142.5,39.6 c 9.4,0 16.8,2.5 22.3,7.6 5.8,5.3 8.7,12.2 8.7,20.6 0,5.2 -1.4,10 -4.2,14.4 -5.3,8.8 -14.3,13.2 -26.7,13.2 -9.3,0 -16.7,-2.5 -22.2,-7.6 -2.9,-2.7 -5.2,-6 -6.7,-9.7 -1.3,-3.3 -2,-6.9 -2,-10.5 0,-5.4 1.4,-10.3 4.1,-14.8 5.3,-8.7 14.2,-13 26.7,-13.2 z m 0.1,9.2 c -5.1,0 -9.4,1.5 -12.8,4.6 -4.1,3.6 -6.1,8.3 -6.1,14.2 0,5.9 2,10.6 6.1,14.2 3.4,3 7.7,4.6 12.9,4.6 5.2,0 9.5,-1.5 12.9,-4.6 2,-1.8 3.6,-4 4.7,-6.7 0.9,-2.3 1.4,-4.8 1.4,-7.3 0,-6.1 -2,-10.9 -6.1,-14.4 -3.5,-3.1 -7.9,-4.6 -13,-4.6 z"
   id="path63"
   style="fill:#000000" />
		<path
   class="st0"
   d="m 199.5,72.4 v 17.9 c 0,0.8 0.2,1.4 0.6,1.8 0.4,0.4 1,0.8 2,1 v 1.3 h -16.8 v -1.3 c 0.9,-0.3 1.6,-0.6 2,-1 0.4,-0.4 0.6,-1 0.6,-1.8 V 44.7 c 0,-0.8 -0.2,-1.4 -0.6,-1.9 -0.4,-0.4 -1,-0.8 -2,-1 V 40.5 H 219 c 4.1,0 7.4,0.2 9.8,0.7 2.4,0.5 4.5,1.3 6.3,2.5 2.1,1.4 3.6,3.2 4.7,5.6 1,2.3 1.5,4.7 1.5,7.3 0,8.8 -4.9,13.9 -14.6,15.4 l 10.5,14.9 c 1.8,2.6 3.2,4.3 4,5 0.9,0.7 1.9,1.2 3.1,1.2 v 1.3 h -19.5 v -1.3 c 1.3,-0.2 2,-0.7 2,-1.4 0,-0.5 -0.6,-1.6 -1.8,-3.4 L 214.1,72.4 Z m 0,-8.8 h 18.2 c 2.7,0 4.6,-0.1 5.7,-0.2 1.1,-0.1 2.1,-0.5 3,-1 2,-1.1 3,-3 3,-5.8 0,-2.8 -1,-4.8 -3,-5.8 -0.9,-0.5 -2,-0.9 -3,-1 -1.1,-0.1 -3,-0.2 -5.7,-0.2 h -18.2 z"
   id="path65"
   style="fill:#000000" />
		<path
   class="st0"
   d="m 268.8,72.4 v 17.9 c 0,0.8 0.2,1.4 0.6,1.8 0.4,0.4 1,0.8 2,1 v 1.3 h -16.8 v -1.3 c 0.9,-0.3 1.6,-0.6 2,-1 0.4,-0.4 0.6,-1 0.6,-1.8 V 44.7 c 0,-0.8 -0.2,-1.4 -0.6,-1.9 -0.4,-0.4 -1,-0.8 -2,-1 v -1.3 h 33.7 c 4.1,0 7.4,0.2 9.8,0.7 2.4,0.5 4.5,1.3 6.3,2.5 2.1,1.4 3.6,3.2 4.7,5.6 1,2.3 1.5,4.7 1.5,7.3 0,8.8 -4.9,13.9 -14.6,15.4 l 10.5,14.9 c 1.8,2.6 3.2,4.3 4,5 0.9,0.7 1.9,1.2 3.1,1.2 v 1.3 h -19.5 v -1.3 c 1.3,-0.2 2,-0.7 2,-1.4 0,-0.5 -0.6,-1.6 -1.8,-3.4 L 283.4,72.4 Z m 0,-8.8 H 287 c 2.7,0 4.6,-0.1 5.7,-0.2 1.1,-0.1 2.1,-0.5 3,-1 2,-1.1 3,-3 3,-5.8 0,-2.8 -1,-4.8 -3,-5.8 -0.9,-0.5 -2,-0.9 -3,-1 -1.1,-0.1 -3,-0.2 -5.7,-0.2 h -18.2 z"
   id="path67"
   style="fill:#000000" />
		<path
   class="st0"
   d="M 326.4,90.3 V 44.7 c 0,-0.8 -0.2,-1.4 -0.6,-1.8 -0.4,-0.4 -1,-0.8 -2,-1 v -1.3 h 16.8 v 1.3 c -0.9,0.2 -1.6,0.6 -2,1 -0.4,0.4 -0.6,1 -0.6,1.8 v 45.6 c 0,0.8 0.2,1.4 0.6,1.9 0.4,0.4 1,0.8 2,1 v 1.3 h -16.8 v -1.3 c 0.9,-0.3 1.6,-0.6 2,-1 0.4,-0.5 0.6,-1.1 0.6,-1.9 z"
   id="path69"
   style="fill:#000000" />
		<path
   class="st0"
   d="M 356.4,90.3 V 44.7 c 0,-0.8 -0.2,-1.4 -0.6,-1.9 -0.4,-0.4 -1,-0.8 -2,-1 v -1.3 h 30 c 6.6,0 11.6,0.7 15.2,2.2 5.1,2.2 8.8,5.8 11.2,10.8 1.9,3.9 2.9,8.6 2.9,13.9 0,9.3 -2.9,16.4 -8.6,21.2 -2.4,2.1 -5.2,3.5 -8.4,4.4 -3.2,0.9 -7.3,1.3 -12.3,1.3 h -30 V 93 c 0.9,-0.3 1.6,-0.6 2,-1 0.5,-0.3 0.6,-0.9 0.6,-1.7 z m 11.8,-4.8 H 383 c 4.7,0 8.3,-0.6 10.6,-1.9 5.1,-2.8 7.6,-8.1 7.6,-16.1 0,-5.8 -1.4,-10.2 -4.1,-13.3 -1.5,-1.7 -3.4,-2.9 -5.5,-3.7 -2.2,-0.7 -5,-1.1 -8.6,-1.1 h -14.8 z"
   id="path71"
   style="fill:#000000" />
		<path
   class="st0"
   d="m 473.6,75.1 h -13.3 c -0.8,0 -1.4,0.2 -1.8,0.6 -0.4,0.4 -0.7,1 -1,2 h -1.3 V 65 h 1.3 c 0.3,1 0.6,1.6 1,2 0.4,0.4 1,0.5 1.8,0.5 h 25.5 v 1.3 c -0.9,0.3 -1.6,0.6 -2,1 -0.4,0.4 -0.6,1 -0.6,1.9 v 11 c 0,0.8 0.2,1.4 0.5,1.9 0.4,0.4 1,0.8 2,1 v 1 c -10.2,5.8 -20.1,8.8 -29.7,8.8 -8.7,0 -15.8,-2.1 -21.3,-6.2 -6.9,-5.2 -10.4,-12.4 -10.4,-21.7 0,-8.6 3.1,-15.5 9.2,-20.6 5.8,-4.8 13.6,-7.3 23.3,-7.3 3.1,0 6,0.3 8.7,0.8 2.7,0.6 5.8,1.5 9.3,2.9 1.8,0.7 3.1,1.1 3.8,1.1 0.6,0 1.2,-0.3 1.9,-0.9 l 1.1,0.6 -6.1,12.9 -1.1,-0.6 c 0,-0.9 -0.1,-1.5 -0.4,-1.9 -0.2,-0.4 -0.7,-0.8 -1.4,-1.4 -1.6,-1.2 -4,-2.2 -7.1,-3.1 -3.1,-0.9 -6,-1.3 -8.8,-1.3 -5.6,0 -10.3,1.6 -14,4.7 -4.2,3.6 -6.3,8.3 -6.3,14.2 0,5.7 2,10.3 6.1,13.8 3.7,3.2 8.7,4.8 14.8,4.8 3,0 5.9,-0.3 8.8,-1 2.9,-0.7 5.4,-1.6 7.5,-2.8 z"
   id="path73"
   style="fill:#000000" />
		<path
   class="st0"
   d="M 512.4,70.8 V 85.6 H 547 c 0.8,0 1.4,-0.2 1.8,-0.6 0.4,-0.4 0.8,-1 1,-2 h 1.3 v 14 h -1.3 c -0.3,-0.9 -0.6,-1.6 -1,-2 -0.4,-0.4 -1,-0.6 -1.8,-0.6 h -48.9 v -1.3 c 0.9,-0.3 1.6,-0.6 2,-1 0.4,-0.4 0.6,-1 0.6,-1.9 V 44.7 c 0,-0.8 -0.2,-1.4 -0.6,-1.9 -0.4,-0.4 -1,-0.8 -2,-1 v -1.3 h 48 c 0.8,0 1.4,-0.2 1.8,-0.6 0.4,-0.4 0.8,-1 1,-2 h 1.3 V 52 h -1.3 c -0.3,-0.9 -0.6,-1.6 -1,-2 -0.4,-0.4 -1,-0.6 -1.8,-0.6 h -33.7 v 12.8 h 21.9 c 0.8,0 1.4,-0.2 1.8,-0.6 0.4,-0.4 0.8,-1 1,-2 h 1.3 v 13.6 h -1.3 c -0.3,-0.9 -0.6,-1.6 -1,-2 -0.4,-0.4 -1,-0.6 -1.8,-0.6 h -21.9 z"
   id="path75"
   style="fill:#000000" />
	</g><g
   id="g93"
   style="fill:#000000"
   transform="matrix(0.88975888,0,0,0.88975888,-479.07288,111.93736)">
		<path
   class="st0"
   d="m 743.8,44.9 v 30 c 0,5.7 -1,9.9 -3.1,12.7 -3.8,5.1 -11.5,7.6 -23.3,7.6 -8.5,0 -15.1,-1.4 -19.6,-4.1 -2.6,-1.6 -4.5,-3.8 -5.5,-6.5 -1,-2.7 -1.5,-6 -1.5,-9.7 v -30 c 0,-0.8 -0.2,-1.4 -0.5,-1.8 -0.4,-0.4 -1,-0.8 -2,-1 V 40.8 H 705 V 42 c -0.9,0.2 -1.6,0.6 -2,1 -0.4,0.4 -0.6,1.1 -0.6,1.9 v 26.7 c 0,3.1 0.2,5.4 0.5,6.8 0.3,1.5 1,2.7 1.9,3.7 2.5,2.7 6.8,4 12.9,4 6.1,0 10.4,-1.3 12.9,-4 0.9,-1 1.5,-2.2 1.9,-3.7 0.3,-1.5 0.5,-3.8 0.5,-6.8 V 44.9 c 0,-0.8 -0.2,-1.4 -0.5,-1.8 -0.4,-0.4 -1,-0.8 -2,-1 v -1.3 h 15.8 V 42 c -0.9,0.3 -1.6,0.6 -2,1 -0.4,0.5 -0.5,1.1 -0.5,1.9 z"
   id="path79"
   style="fill:#000000" />
		<path
   class="st0"
   d="m 787.8,49.6 v 40.6 c 0,0.8 0.2,1.4 0.5,1.8 0.4,0.4 1,0.8 2,1 v 1.3 H 773.6 V 93 c 0.9,-0.3 1.6,-0.6 2,-1 0.4,-0.4 0.5,-1 0.5,-1.8 V 49.6 h -16.6 c -0.8,0 -1.4,0.2 -1.8,0.5 -0.4,0.4 -0.8,1 -1,2 h -1.3 V 38.3 h 1.3 c 0.3,1 0.6,1.6 1,2 0.4,0.4 1,0.5 1.8,0.5 h 44.9 c 0.8,0 1.4,-0.2 1.8,-0.5 0.4,-0.4 0.8,-1 1,-2 h 1.3 v 13.8 h -1.3 c -0.3,-1 -0.6,-1.6 -1,-2 -0.4,-0.4 -1,-0.5 -1.8,-0.5 z"
   id="path81"
   style="fill:#000000" />
		<path
   class="st0"
   d="m 868.7,75.9 7.5,11.2 -1,0.7 c -0.7,-0.7 -1.3,-1 -1.8,-1 -0.5,0 -1.8,0.6 -4,1.9 -4.5,2.6 -8.3,4.3 -11.4,5.2 -3.1,0.9 -6.7,1.4 -11,1.4 -8.4,0 -15.4,-2 -20.8,-6 -3.2,-2.3 -5.7,-5.2 -7.5,-8.7 -2.1,-3.9 -3.2,-8.3 -3.2,-13.1 0,-6.5 1.9,-12.1 5.7,-16.9 5.7,-7.2 14.3,-10.8 25.8,-10.8 4.2,0 7.9,0.4 10.9,1.3 3,0.9 6.8,2.6 11.4,5.3 2.2,1.2 3.5,1.8 4,1.8 0.5,0 1.1,-0.3 1.8,-1 l 1,0.7 -7.5,11.2 -1.1,-0.7 c 0.1,-0.4 0.1,-0.8 0.1,-1.1 0,-0.8 -0.3,-1.5 -1,-2.1 -0.7,-0.7 -1.8,-1.5 -3.5,-2.4 -4.6,-2.6 -9.5,-3.9 -14.7,-3.9 -6.1,0 -11,1.5 -14.6,4.6 -4.3,3.6 -6.4,8.3 -6.4,14 0,5.8 2.1,10.4 6.4,14 3.6,3.1 8.5,4.6 14.6,4.6 5.2,0 10.1,-1.3 14.7,-3.9 1.7,-0.9 2.8,-1.7 3.5,-2.4 0.7,-0.7 1,-1.4 1,-2.1 0,-0.3 0,-0.6 -0.1,-1 z"
   id="path83"
   style="fill:#000000" />
		<path
   class="st0"
   d="m 931.8,71 h -30.9 v 19.3 c 0,0.8 0.2,1.4 0.6,1.8 0.4,0.4 1,0.8 1.9,1 v 1.3 h -16.7 v -1.3 c 0.9,-0.3 1.6,-0.6 2,-1 0.4,-0.4 0.5,-1 0.5,-1.8 V 44.9 c 0,-0.8 -0.2,-1.4 -0.5,-1.8 -0.4,-0.4 -1,-0.8 -2,-1 v -1.3 h 16.7 V 42 c -0.9,0.2 -1.6,0.6 -2,1 -0.4,0.4 -0.5,1 -0.5,1.8 v 17.3 h 30.9 V 44.9 c 0,-0.8 -0.2,-1.4 -0.5,-1.8 -0.4,-0.4 -1,-0.8 -2,-1 V 40.8 H 946 V 42 c -0.9,0.3 -1.6,0.6 -2,1 -0.4,0.4 -0.5,1 -0.5,1.8 v 45.4 c 0,0.8 0.2,1.4 0.5,1.8 0.4,0.4 1,0.8 2,1 v 1.3 H 929.3 V 93 c 0.9,-0.2 1.6,-0.6 1.9,-1 0.4,-0.4 0.6,-1 0.6,-1.8 z"
   id="path85"
   style="fill:#000000" />
		<path
   class="st0"
   d="m 973.3,70.8 v 14.7 h 34.4 c 0.8,0 1.4,-0.2 1.8,-0.5 0.4,-0.4 0.8,-1 1,-2 h 1.3 v 13.8 h -1.3 c -0.3,-0.9 -0.6,-1.6 -1,-2 -0.4,-0.4 -1,-0.5 -1.8,-0.5 H 959.1 V 93 c 0.9,-0.3 1.6,-0.6 2,-1 0.4,-0.4 0.5,-1 0.5,-1.8 V 44.9 c 0,-0.8 -0.2,-1.4 -0.5,-1.8 -0.4,-0.4 -1,-0.8 -2,-1 v -1.3 h 47.7 c 0.8,0 1.4,-0.2 1.8,-0.6 0.4,-0.4 0.8,-1 1,-2 h 1.3 V 52 h -1.3 c -0.3,-0.9 -0.6,-1.6 -1,-2 -0.4,-0.4 -1,-0.6 -1.8,-0.6 H 973.3 V 62.1 H 995 c 0.8,0 1.4,-0.2 1.8,-0.5 0.4,-0.4 0.8,-1 1,-2 h 1.3 v 13.5 h -1.3 c -0.3,-0.9 -0.6,-1.6 -1,-1.9 -0.4,-0.4 -1,-0.6 -1.8,-0.6 h -21.7 z"
   id="path87"
   style="fill:#000000" />
		<path
   class="st0"
   d="m 1037.8,72.5 v 17.8 c 0,0.8 0.2,1.4 0.6,1.8 0.4,0.4 1,0.8 1.9,1 v 1.3 h -16.7 v -1.3 c 0.9,-0.3 1.6,-0.6 2,-1 0.4,-0.4 0.5,-1 0.5,-1.8 V 44.9 c 0,-0.8 -0.2,-1.4 -0.5,-1.8 -0.4,-0.4 -1,-0.8 -2,-1 v -1.3 h 33.5 c 4.1,0 7.3,0.2 9.7,0.7 2.4,0.5 4.5,1.3 6.3,2.5 2.1,1.4 3.6,3.2 4.6,5.5 1,2.2 1.5,4.7 1.5,7.2 0,8.7 -4.9,13.8 -14.6,15.3 l 10.4,14.8 c 1.8,2.6 3.2,4.3 4,5 0.9,0.7 1.9,1.2 3.1,1.2 v 1.3 h -19.3 V 93 c 1.3,-0.2 2,-0.7 2,-1.4 0,-0.5 -0.6,-1.6 -1.8,-3.4 l -10.8,-15.8 h -14.4 z m 0,-8.8 h 18 c 2.7,0 4.6,-0.1 5.6,-0.2 1.1,-0.2 2.1,-0.5 3,-1 2,-1.1 3,-3 3,-5.8 0,-2.8 -1,-4.7 -3,-5.8 -0.9,-0.5 -1.9,-0.9 -3,-1 -1.1,-0.1 -2.9,-0.2 -5.7,-0.2 h -18 v 14 z"
   id="path89"
   style="fill:#000000" />
		<path
   class="st0"
   d="m 1141.7,45.3 -6.4,12.6 -1.1,-0.6 c 0,-0.3 0,-0.5 0,-0.6 0,-0.9 -0.8,-1.8 -2.3,-2.9 -4.7,-3.2 -10.1,-4.9 -16.4,-4.9 -2.8,0 -5.2,0.3 -7.3,1 -1.5,0.5 -2.8,1.3 -3.7,2.4 -1,1 -1.4,2.2 -1.4,3.4 0,2 1.2,3.4 3.6,4.1 1.3,0.4 3.9,0.8 8.1,1.2 l 6.2,0.6 c 3.7,0.4 6.6,0.9 8.9,1.6 2.3,0.7 4.3,1.6 6,2.9 1.8,1.3 3.2,3 4.2,5.1 1,2.1 1.6,4.3 1.6,6.7 0,3.8 -1.2,7.1 -3.6,10 -2.2,2.7 -5.6,4.6 -10.2,5.9 -3.5,1 -7.2,1.5 -11.1,1.5 -7.1,0 -14.1,-1.7 -21,-5.1 -1.5,-0.7 -2.3,-1 -2.6,-1 -0.3,0 -0.9,0.3 -1.6,0.9 l -1.1,-0.6 5.8,-13.1 1.1,0.5 c 0,0.2 0,0.4 0,0.5 0,1.2 0.6,2.3 1.7,3.3 1.7,1.5 4.3,2.8 7.9,3.9 3.6,1.1 6.9,1.6 10.1,1.6 3.5,0 6.4,-0.6 8.9,-1.8 1.4,-0.7 2.4,-1.5 3.3,-2.6 0.8,-1.1 1.2,-2.2 1.2,-3.4 0,-1.8 -1,-3 -2.9,-3.8 -1.3,-0.5 -4,-1 -8.1,-1.4 l -6,-0.6 c -4.1,-0.4 -6.9,-0.8 -8.6,-1.2 -1.7,-0.4 -3.3,-1 -5,-1.8 -2.4,-1.2 -4.3,-2.9 -5.6,-5.3 -1.2,-2.1 -1.8,-4.6 -1.8,-7.3 0,-4.5 1.6,-8.3 4.7,-11.2 4.1,-3.9 10.2,-5.8 18.4,-5.8 3.4,0 6.6,0.3 9.6,1 3,0.7 6.6,2 11.1,3.8 1.5,0.6 2.4,0.9 2.8,0.9 0.5,0 1.2,-0.3 1.9,-0.9 z"
   id="path91"
   style="fill:#000000" />
	</g>
<style
   type="text/css"
   id="style35">
	.st0{fill:none;}
	.st1{fill:#3F3F3E;}
</style><text
   xml:space="preserve"
   id="text849"
   style="font-style:normal;font-weight:normal;font-size:40px;line-height:1.25;font-family:sans-serif;white-space:pre;shape-inside:url(#rect851);fill:#000000;fill-opacity:1;stroke:none;"
   transform="matrix(0.42357143,0,0,0.42357143,536.0285,-144.35661)" /><circle
   style="fill:none;fill-opacity:1;stroke:#d3bf37;stroke-width:3.48423;stroke-miterlimit:4;stroke-dasharray:none;stroke-opacity:1"
   id="path850"
   cx="-117.9414"
   cy="21.927433"
   r="48.257881" /><g
   id="g51"
   inkscape:export-xdpi="138.24316"
   inkscape:export-ydpi="138.24316"
   transform="matrix(0.13936974,0,0,0.13936974,-157.936,-14.96112)"
   inkscape:export-filename="C:\Users\silve\g51.png"><path
     class="st0"
     d="m 302.6,398.7 c -10.5,2.9 -22.5,5.1 -35.9,6.5 V 452 H 388 c 22.5,0 38.8,-3.1 48.7,-9.3 11.3,-7.2 17,-18.9 17,-35.2 0,-16.1 -5.7,-27.9 -17,-35.2 -9.7,-6.2 -26,-9.3 -48.7,-9.3 h -21.2 c -1.9,1.8 -3.8,3.5 -5.7,5.2 -16.7,14.1 -36.4,24.4 -58.5,30.5 z"
     id="path37" /><path
     class="st0"
     d="m 195.3,203.9 c 0,-5 -1.1,-8.7 -3.4,-11.3 -2.2,-2.6 -6.2,-4.6 -12,-6.2 v -7.7 h 121.6 c -3.2,-8.7 -7.6,-16.2 -13,-22.3 C 281.4,148.5 273.1,143 263.1,139.6 252,135.9 236.5,134 216.9,134 h -70.6 v 181 h 48.9 V 203.9 Z"
     id="path39" /><path
     class="st0"
     d="m 431.9,300.5 c 8.5,-6.4 12.7,-16.3 12.7,-29.7 0,-13.7 -4,-23.5 -12,-29.4 -3.3,-2.4 -7.7,-4.4 -13,-5.8 -1.1,27.1 -6.2,51.4 -15.1,72.8 12.5,-1 21.6,-3.6 27.4,-7.9 z"
     id="path41" /><path
     class="st0"
     d="m 266.7,308.2 c 2.2,-0.9 4,-1.7 5.6,-2.6 22.8,-12.4 34.6,-36.3 36.1,-72.9 h -41.7 z"
     id="path43" /><path
     class="st1"
     d="m 179.9,186.4 c 5.8,1.6 9.7,3.7 12,6.2 2.2,2.6 3.4,6.3 3.4,11.3 V 315 h 21.6 c 25.4,0 40.7,-3.3 49.8,-6.9 v -75.5 h 41.7 c 0.1,-2.7 0.2,-5.4 0.2,-8.2 0,-17.8 -2.4,-33.1 -7.1,-45.7 H 179.9 Z"
     id="path45"
     style="fill:#000000" /><path
     class="st1"
     d="m 222.9,388.2 c 30.2,0 55.1,-2.7 74.6,-8 19.5,-5.4 36.5,-14.3 51.1,-26.7 34.7,-29.6 52,-72.5 52,-129 0,-32.1 -5.8,-60.2 -17.5,-84.1 C 368.4,109.9 345.7,88 315,74.7 293.6,65.5 262.9,61 222.9,61 H 40.4 v 7.7 c 5.8,1.6 9.7,3.7 12,6.2 2.2,2.6 3.4,6.3 3.4,11.3 V 363 c 0,5 -1.1,8.7 -3.4,11.3 -2.2,2.6 -6.2,4.6 -12,6.2 v 7.7 z M 127.2,114.9 H 217 c 21.8,0 39.2,2.2 52.3,6.6 13.1,4.4 24.3,11.8 33.6,22.2 16.6,18.7 25,45.6 25,80.8 0,48.6 -15.4,81.3 -46.3,98 -14.4,7.8 -35.9,11.7 -64.6,11.7 h -89.8 z"
     id="path47"
     style="fill:#000000" /><path
     class="st1"
     d="m 471.4,334.6 c 29.6,-14.1 44.3,-37.1 44.3,-69 0,-28.6 -9.7,-50.5 -29,-65.7 -9.7,-7.7 -21.1,-13.1 -34,-16.3 -9.9,-2.4 -22.2,-3.9 -37,-4.5 2.7,14.3 4.1,29.5 4.1,45.4 0,3.8 -0.1,7.5 -0.2,11.2 5.3,1.4 9.6,3.3 13,5.8 8,5.8 12,15.6 12,29.4 0,13.4 -4.2,23.3 -12.7,29.7 -5.8,4.3 -14.9,6.9 -27.4,7.9 -8.8,21 -21.4,39.1 -37.6,54.4 H 388 c 22.7,0 38.9,3.1 48.7,9.3 11.3,7.4 17,19.1 17,35.2 0,16.3 -5.7,28 -17,35.2 -9.9,6.2 -26.1,9.3 -48.7,9.3 H 266.7 v -46.8 c -13.3,1.5 -27.9,2.2 -43.8,2.2 h -27.6 v 73.4 c 0,5 -1.1,8.7 -3.4,11.3 -2.2,2.6 -6.2,4.6 -12,6.2 v 7.7 h 223.6 c 21.1,0 38.8,-1.9 53.1,-5.6 14.3,-3.8 26.9,-9.9 37.8,-18.3 21.4,-16.9 32.1,-40.3 32.1,-70.2 0,-37.6 -18.3,-63.3 -55.1,-77.2 z"
     id="path49"
     style="fill:#000000" /></g><ellipse
   style="fill:none;fill-rule:evenodd;stroke-width:0.139366"
   id="path23"
   cx="-114.92645"
   cy="32.171726"
   rx="43.588036"
   ry="26.939123" /><text
   xml:space="preserve"
   style="font-style:normal;font-variant:normal;font-weight:normal;font-stretch:normal;font-size:40px;line-height:1.25;font-family:'Freestyle Script';-inkscape-font-specification:'Freestyle Script, Normal';font-variant-ligatures:normal;font-variant-caps:normal;font-variant-numeric:normal;font-variant-east-asian:normal;fill:#000000;fill-opacity:1;stroke:none"
   x="295.65671"
   y="-120"
   id="text1657"><tspan
     sodipodi:role="line"
     id="tspan1655"
     x="295.65671"
     y="-120">Dorridge</tspan><tspan
     sodipodi:role="line"
     x="295.65671"
     y="-70"
     id="tspan1659" /></text><text
   xml:space="preserve"
   style="font-style:normal;font-variant:normal;font-weight:normal;font-stretch:normal;font-size:40px;line-height:1.25;font-family:'Freestyle Script';-inkscape-font-specification:'Freestyle Script, Normal';font-variant-ligatures:normal;font-variant-caps:normal;font-variant-numeric:normal;font-variant-east-asian:normal;fill:#000000;fill-opacity:1;stroke:none"
   x="293.15286"
   y="-92.223816"
   id="text1690"><tspan
     sodipodi:role="line"
     id="tspan1688"
     x="293.15286"
     y="-92.223816">Butchers</tspan></text><path
   style="fill:#000000;stroke:#000000;stroke-opacity:1;opacity:0.99600006"
   id="path1710"
   d="m 303.79153,-84.571438 c 3.57996,-0.350113 -2.07227,0.208243 4.69172,-0.502058 6.20363,-0.651457 9.79637,-1.015249 16.36895,-1.496632 9.16076,-0.670944 15.70176,-0.976333 24.90548,-1.470712 14.80306,-0.697661 7.7215,-0.380873 21.24432,-0.958802 0,0 -0.002,-3.58e-4 -0.002,-3.58e-4 v 0 c -13.52283,0.577931 -6.44126,0.261141 -21.24433,0.958805 -9.34437,0.501935 -15.60913,0.792487 -24.90547,1.470718 -6.57328,0.479565 -10.2244,0.844415 -16.43925,1.486289 -6.14496,0.634657 -1.37942,0.178094 -4.73169,0.494917 0,0 0.11259,0.01783 0.11259,0.01783 z" /></svg>
